<svg id="layer1" xmlns="http://www.w3.org/2000/svg" viewBox="0 0 616.5958 155.3317"><defs><style>.cls-1{fill:#655d5d;}</style></defs><path class="cls-1" d="M517.6656,119.5H505.5834L487.5653,73.8922c-3.66-1.2658-6.1149-2.7781-7.36-4.5715l1.0971-9.0017h25.2687l1.0971,9.0017a12.1526,12.1526,0,0,1-4.7224,3.3761l5.9321,17.6871a60.8437,60.8437,0,0,1,2.8553,10.8659l.2215,1.6174h1.5367a71.1788,71.1788,0,0,1,3.0768-12.2721l5.8232-17.3008a12.5526,12.5526,0,0,1-5.7141-3.9736l1.1006-9.0017h24.1681l1.0971,9.0017c-1.3186,1.7934-3.7344,3.3057-7.2508,4.5715Z"/><path class="cls-1" d="M452.3628,60.2838a52.7485,52.7485,0,0,1,12.0647-1.5122c3.7133,0,6.8429.1056,9.3958.3515v45.8891c3.0171,1.16,5.1445,2.4613,6.3823,3.9383l-1.1605,8.8262H452.3628l-1.1605-8.8262c1.0831-1.477,3.207-2.7781,6.3788-3.9383V73.0483a15.2669,15.2669,0,0,1-6.3788-3.9031Zm13.1091-7.9471q-9.6313,0-9.6315-8.65c0-5.8022,3.2106-8.721,9.6315-8.721,6.4947,0,9.7439,2.9188,9.7439,8.721Q475.2158,52.3363,465.4719,52.3367Z"/><path class="cls-1" d="M418.5562,36.4778a50.4466,50.4466,0,0,1,11.98-1.5122c3.8117,0,7.0714.1055,9.786.3519v69.3783a20.8923,20.8923,0,0,1,6.0447,1.969v9.1077c-4.3955,2.4613-9.9654,3.7272-16.71,3.7272a6.7828,6.7828,0,0,1-2.1978-2.11,6.1389,6.1389,0,0,1-1.1006-2.8836,20.7168,20.7168,0,0,1-6.2662,3.5867A22.54,22.54,0,0,1,412.508,119.5q-11.873,0-17.2584-6.7164c-3.5164-4.5711-5.2781-11.9554-5.2781-22.2234q0-17.4592,8.1369-24.5092a25.8281,25.8281,0,0,1,17.589-6.224,37.7827,37.7827,0,0,1,9.2341,1.16V49.5235a16.037,16.037,0,0,1-7.4759-4.1491Zm-3.7379,71.2069a13.4609,13.4609,0,0,0,10.1132-3.9384v-30.98a38.2476,38.2476,0,0,0-9.5646-1.16A7.6926,7.6926,0,0,0,408,76.3535c-1.4628,3.0945-2.1977,7.7363-2.1977,13.9952q0,9.2306,2.1977,13.292A7.2363,7.2363,0,0,0,414.8183,107.6847Z"/><path class="cls-1" d="M302.445,60.0022a49.2007,49.2007,0,0,1,10.827-1.371q4.81,0,7.9787.2108v5.8021a20.38,20.38,0,0,1,7.2191-3.9383,26.0059,26.0059,0,0,1,8.7453-1.6174c7.1418,0,12.135,1.7582,14.98,5.3093q4.3725,5.3274,4.3743,18.3911V104.977a14.9035,14.9035,0,0,1,6.013,3.9031l-1.0936,8.8966H336.34l-1.0936-8.8966q1.5349-2.1621,6.013-3.9031V82.0853q0-6.2237-1.9656-8.3339c-1.2413-1.4418-3.4988-2.18-6.78-2.18a16.3386,16.3386,0,0,0-9.8389,3.6924V104.977a14.9039,14.9039,0,0,1,6.0131,3.9031l-1.0936,8.8966H302.445l-1.0936-8.8966q1.5351-2.1621,6.0166-3.9031v-32.14a13.721,13.721,0,0,1-6.0166-3.9383Z"/><path class="cls-1" d="M274.1873,119.5q-12.949,0-19.53-7.3491-6.4771-7.3319-6.4772-21.3448a41.6375,41.6375,0,0,1,2.2681-14.5574,22.2414,22.2414,0,0,1,6.15-9.4946,26.3,26.3,0,0,1,17.5889-6.4348q10.0376,0,15.3244,5.4854c3.5973,3.6219,5.3977,10.092,5.3977,19.5161,0,5.4853-2.5564,8.2634-7.6622,8.2634H263.8281c.2883,4.8174,1.4382,8.193,3.4531,10.1976,2.0887,1.969,5.3589,2.9889,9.8212,2.9889a26.992,26.992,0,0,0,7.0152-.9143,20.1426,20.1426,0,0,0,4.8562-1.8638l1.5085-.9143,3.2386,9.1781a27.2531,27.2531,0,0,1-1.941,2.0746c-.7912.7735-2.88,1.8286-6.2592,3.2A30.7956,30.7956,0,0,1,274.1873,119.5Zm6.8008-36.1486a29.3729,29.3729,0,0,0,.2144-3.8679,8.4941,8.4941,0,0,0-1.7266-4.8175q-1.7247-2.6373-6.0446-2.6373a7.9265,7.9265,0,0,0-6.4737,2.7429q-2.268,2.7429-3.0205,9.2833Z"/><path class="cls-1" d="M221.016,119.5q-12.949,0-19.5335-7.3491-6.4719-7.3319-6.4737-21.3448a41.7232,41.7232,0,0,1,2.2646-14.5574,22.2783,22.2783,0,0,1,6.1537-9.4946A26.293,26.293,0,0,1,221.016,60.319q10.0375,0,15.3244,5.4854c3.5973,3.6219,5.3941,10.092,5.3941,19.5161,0,5.4853-2.5528,8.2634-7.6621,8.2634H210.6568c.2883,4.8174,1.4381,8.193,3.453,10.1976,2.0852,1.969,5.359,2.9889,9.8178,2.9889a26.9715,26.9715,0,0,0,7.0151-.9143,20.0191,20.0191,0,0,0,4.8562-1.8638l1.512-.9143,3.2387,9.1781a26.7462,26.7462,0,0,1-1.9446,2.0746c-.7912.7735-2.8764,1.8286-6.2592,3.2A30.776,30.776,0,0,1,221.016,119.5Zm6.7972-36.1486a29.3023,29.3023,0,0,0,.2181-3.8679,8.4943,8.4943,0,0,0-1.7267-4.8175q-1.73-2.6373-6.0446-2.6373a7.9171,7.9171,0,0,0-6.4737,2.7429q-2.268,2.7429-3.0241,9.2833Z"/><path class="cls-1" d="M184.9379,74.2086q-8.4711,0-11.7026,3.3756v26.4433q9.0249,1.741,12.3707,4.8526l-1.1147,8.8966H152.6187l-1.1146-8.8966q1.5612-2.1621,6.129-3.9031v-32.14a14.0149,14.0149,0,0,1-6.129-3.9383l1.1146-8.8966a51.0676,51.0676,0,0,1,11.0309-1.371q4.9053,0,8.1369.2108v7.2791a19.2977,19.2977,0,0,1,6.5758-5.0638,15.75,15.75,0,0,1,7.2437-2.0745,12.1686,12.1686,0,0,1,4.5677.5627L189.84,74.56A34.7478,34.7478,0,0,0,184.9379,74.2086Z"/><path class="cls-1" d="M115.9639,51.3168a13.4043,13.4043,0,0,0-11.6252,5.9782q-4.0614,6.013-4.0579,20.8167,0,28.3773,14.913,28.3775a26.77,26.77,0,0,0,10.5281-1.9342v-13.01c-3.3617-1.1255-5.665-2.5669-6.9062-4.2552l1.0936-9.0721h25.6626l1.0971,9.0721a13.9316,13.9316,0,0,1-5.155,3.5868v21.2392a33.1325,33.1325,0,0,1-11.6252,5.7669,65.038,65.038,0,0,1-15.68,1.6174c-10.4577,0-18.134-3.13-23.0323-9.3185Q83.8293,100.74,83.8311,79.73c0-14.1007,2.887-24.5447,8.6609-31.2607q8.7769-10.1274,23.908-10.1272,15.2434,0,24.896,7.2435v2.6373a48.99,48.99,0,0,1-.7666,6.6812,29.274,29.274,0,0,1-2.1943,7.7011H128.2466c-1.0971-2.1453-1.8284-5.3449-2.1942-9.5649A29.7434,29.7434,0,0,0,115.9639,51.3168Z"/><path class="cls-1" d="M12.4364,71.1256,34.0293,49.5328a9.42,9.42,0,0,1,6.6608-2.759H51.5068A4.9061,4.9061,0,0,1,56.413,51.68V62.4966a9.42,9.42,0,0,1-2.759,6.6608l-1.9683,1.9682a14.13,14.13,0,0,0,0,19.9825L58.56,97.9825a9.42,9.42,0,0,1,2.759,6.6609v11.0128a4.71,4.71,0,0,1-4.71,4.71H45.5963a9.42,9.42,0,0,1-6.6608-2.759L12.4364,91.1081A14.13,14.13,0,0,1,12.4364,71.1256Z"/><path class="cls-1" d="M604.1594,71.1256,582.5665,49.5328a9.42,9.42,0,0,0-6.6608-2.759H565.089a4.9061,4.9061,0,0,0-4.9061,4.9061V62.4966a9.42,9.42,0,0,0,2.759,6.6608l1.9682,1.9682a14.13,14.13,0,0,1,0,19.9825l-6.8744,6.8744a9.42,9.42,0,0,0-2.759,6.6609v11.0128a4.71,4.71,0,0,0,4.71,4.71H571a9.42,9.42,0,0,0,6.6609-2.759l26.499-26.4991A14.13,14.13,0,0,0,604.1594,71.1256Z"/></svg>