<svg id="layer1" xmlns="http://www.w3.org/2000/svg" viewBox="0 0 612 232"><defs><style>.cls-1{fill:#5fbf4f;}.cls-2{fill:#00975e;}.cls-3{fill:#655d5d;}</style></defs><path class="cls-1" d="M223.969,3.0619h41.6043A50.2391,50.2391,0,0,1,315.8123,53.301V77.0468a9.42,9.42,0,0,1-9.42,9.42H267.9282a50.2391,50.2391,0,0,1-50.2391-50.2391V9.3418A6.28,6.28,0,0,1,223.969,3.0619Z"/><path class="cls-2" d="M380.1812,37.405H352.5105a21.98,21.98,0,0,0-21.98,21.98v17.27h0A24.5309,24.5309,0,0,1,306,101.1852h-8.0461A16.4846,16.4846,0,0,0,281.4692,117.67v16.0923a16.4847,16.4847,0,0,0,16.4847,16.4846h16.0922a16.4847,16.4847,0,0,0,16.4847-16.4846v-8.0462a24.5307,24.5307,0,0,1,24.5308-24.5307h17.27a21.98,21.98,0,0,0,21.98-21.98V51.5348A14.13,14.13,0,0,0,380.1812,37.405Z"/><path class="cls-3" d="M515.3677,228.0716H503.2855l-18.0181-45.6074c-3.6605-1.2659-6.1149-2.7781-7.36-4.5715l1.0972-9.0017h25.2687l1.0971,9.0017a12.1543,12.1543,0,0,1-4.7224,3.376l5.932,17.6871a60.8367,60.8367,0,0,1,2.8554,10.866l.2215,1.6174h1.5367a71.1775,71.1775,0,0,1,3.0768-12.2722l5.8232-17.3008a12.552,12.552,0,0,1-5.7141-3.9735l1.1005-9.0017h24.1681l1.0972,9.0017c-1.3187,1.7934-3.7345,3.3056-7.2508,4.5715Z"/><path class="cls-3" d="M450.0649,168.8558a52.749,52.749,0,0,1,12.0647-1.5123c3.7133,0,6.8428.1056,9.3958.3516v45.889c3.017,1.16,5.1445,2.4613,6.3822,3.9384l-1.16,8.8261H450.0649l-1.1605-8.8261c1.0831-1.4771,3.207-2.7781,6.3788-3.9384V181.62a15.2664,15.2664,0,0,1-6.3788-3.9032Zm13.1091-7.9471q-9.6313,0-9.6315-8.65c0-5.8021,3.2106-8.721,9.6315-8.721,6.4947,0,9.7439,2.9189,9.7439,8.721Q472.9179,160.9083,463.174,160.9087Z"/><path class="cls-3" d="M416.2583,145.05a50.4464,50.4464,0,0,1,11.98-1.5122c3.8118,0,7.0715.1056,9.7861.352v69.3783a20.89,20.89,0,0,1,6.0447,1.9689v9.1078c-4.3955,2.4613-9.9654,3.7271-16.71,3.7271a6.7811,6.7811,0,0,1-2.1977-2.11,6.1382,6.1382,0,0,1-1.1006-2.8837,20.719,20.719,0,0,1-6.2662,3.5868,22.54,22.54,0,0,1-7.5849,1.4066q-11.873,0-17.2584-6.7164c-3.5164-4.571-5.2782-11.9554-5.2782-22.2234q0-17.4591,8.1369-24.5091A25.8284,25.8284,0,0,1,413.4,168.3986a37.7815,37.7815,0,0,1,9.234,1.16V158.0954a16.0371,16.0371,0,0,1-7.4758-4.1491ZM412.52,216.2566a13.4606,13.4606,0,0,0,10.1131-3.9383v-30.98a38.2462,38.2462,0,0,0-9.5645-1.16,7.6925,7.6925,0,0,0-7.3669,4.7471c-1.4629,3.0944-2.1977,7.7363-2.1977,13.9951q0,9.2305,2.1977,13.2921A7.2362,7.2362,0,0,0,412.52,216.2566Z"/><path class="cls-3" d="M300.1471,168.5742a49.1947,49.1947,0,0,1,10.827-1.371q4.81,0,7.9786.2107v5.8021a20.3812,20.3812,0,0,1,7.2192-3.9383,26.0059,26.0059,0,0,1,8.7453-1.6174c7.1418,0,12.135,1.7582,14.98,5.3094q4.3725,5.3272,4.3744,18.391v22.1882a14.9042,14.9042,0,0,1,6.013,3.9032l-1.0936,8.8965H334.0416l-1.0936-8.8965q1.5348-2.1621,6.013-3.9032V190.6572q0-6.2236-1.9656-8.3338c-1.2413-1.4419-3.4988-2.18-6.78-2.18a16.3392,16.3392,0,0,0-9.8389,3.6924v29.7133a14.9047,14.9047,0,0,1,6.0131,3.9032l-1.0936,8.8965H300.1471l-1.0936-8.8965q1.5349-2.1621,6.0165-3.9032v-32.14a13.7208,13.7208,0,0,1-6.0165-3.9384Z"/><path class="cls-3" d="M271.8894,228.0716q-12.949,0-19.53-7.3491-6.4771-7.3317-6.4772-21.3447A41.6377,41.6377,0,0,1,248.15,184.82a22.2411,22.2411,0,0,1,6.15-9.4945,26.2993,26.2993,0,0,1,17.5889-6.4348q10.0375,0,15.3244,5.4853c3.5973,3.622,5.3977,10.092,5.3977,19.5161,0,5.4854-2.5564,8.2635-7.6622,8.2635H261.53c.2883,4.8174,1.4381,8.193,3.453,10.1976,2.0887,1.9689,5.359,2.9888,9.8213,2.9888a26.9883,26.9883,0,0,0,7.0152-.9143,20.1384,20.1384,0,0,0,4.8562-1.8638l1.5084-.9143,3.2387,9.1782a27.295,27.295,0,0,1-1.941,2.0745c-.7913.7735-2.88,1.8286-6.2592,3.2A30.7981,30.7981,0,0,1,271.8894,228.0716ZM278.69,191.923a29.3718,29.3718,0,0,0,.2144-3.8679,8.4938,8.4938,0,0,0-1.7266-4.8174q-1.7247-2.6373-6.0446-2.6373a7.9265,7.9265,0,0,0-6.4737,2.7429q-2.268,2.7429-3.02,9.2833Z"/><path class="cls-3" d="M218.7181,228.0716q-12.949,0-19.5336-7.3491-6.4718-7.3317-6.4736-21.3447a41.7234,41.7234,0,0,1,2.2646-14.5575,22.2787,22.2787,0,0,1,6.1536-9.4945,26.2929,26.2929,0,0,1,17.589-6.4348q10.0376,0,15.3244,5.4853c3.5973,3.622,5.3941,10.092,5.3941,19.5161,0,5.4854-2.5528,8.2635-7.6621,8.2635H208.3588c.2884,4.8174,1.4382,8.193,3.4531,10.1976,2.0852,1.9689,5.3589,2.9888,9.8177,2.9888a26.9674,26.9674,0,0,0,7.0152-.9143,20.0149,20.0149,0,0,0,4.8562-1.8638l1.512-.9143,3.2387,9.1782a26.7666,26.7666,0,0,1-1.9446,2.0745c-.7912.7735-2.8764,1.8286-6.2592,3.2A30.7784,30.7784,0,0,1,218.7181,228.0716Zm6.7972-36.1486a29.3031,29.3031,0,0,0,.218-3.8679,8.4946,8.4946,0,0,0-1.7266-4.8174q-1.73-2.6373-6.0447-2.6373a7.9169,7.9169,0,0,0-6.4736,2.7429q-2.2681,2.7429-3.0241,9.2833Z"/><path class="cls-3" d="M182.64,182.7805q-8.4711,0-11.7026,3.3756v26.4433q9.0249,1.741,12.3707,4.8527l-1.1148,8.8965H150.3208l-1.1146-8.8965q1.5612-2.1621,6.129-3.9032v-32.14a14.015,14.015,0,0,1-6.129-3.9384l1.1146-8.8965a51.0613,51.0613,0,0,1,11.0309-1.371q4.9053,0,8.1369.2107v7.2792a19.2958,19.2958,0,0,1,6.5757-5.0638,15.75,15.75,0,0,1,7.2438-2.0746,12.1684,12.1684,0,0,1,4.5677.5628l-.334,15.0146A34.7332,34.7332,0,0,0,182.64,182.7805Z"/><path class="cls-3" d="M113.6659,159.8888a13.4047,13.4047,0,0,0-11.6252,5.9781q-4.0612,6.0131-4.0578,20.8168,0,28.3773,14.913,28.3775a26.7719,26.7719,0,0,0,10.5281-1.9342V200.1165c-3.3618-1.1255-5.665-2.5669-6.9063-4.2551l1.0937-9.0721H143.274l1.0971,9.0721a13.9336,13.9336,0,0,1-5.155,3.5868v21.2391a33.1308,33.1308,0,0,1-11.6252,5.7669,65.033,65.033,0,0,1-15.68,1.6174c-10.4578,0-18.134-3.13-23.0323-9.3185q-7.3476-9.441-7.3458-30.4516c0-14.1008,2.887-24.5448,8.6609-31.2608q8.7769-10.1274,23.9079-10.1272,15.2436,0,24.896,7.2436v2.6373a49.0048,49.0048,0,0,1-.7665,6.6812,29.2763,29.2763,0,0,1-2.1943,7.7011H125.9487c-1.0971-2.1454-1.8285-5.345-2.1942-9.5649A29.7416,29.7416,0,0,0,113.6659,159.8888Z"/><path class="cls-3" d="M10.1385,179.6976l21.5929-21.5929a9.42,9.42,0,0,1,6.6608-2.759H49.2089a4.9061,4.9061,0,0,1,4.9061,4.9062v10.8166a9.42,9.42,0,0,1-2.759,6.6608l-1.9682,1.9683a14.13,14.13,0,0,0,0,19.9825l6.8744,6.8744a9.42,9.42,0,0,1,2.759,6.6608v11.0129a4.71,4.71,0,0,1-4.71,4.71H43.2984a9.42,9.42,0,0,1-6.6608-2.759L10.1385,199.68A14.13,14.13,0,0,1,10.1385,179.6976Z"/><path class="cls-3" d="M601.8615,179.6976l-21.5929-21.5929a9.42,9.42,0,0,0-6.6608-2.759H562.7911a4.9061,4.9061,0,0,0-4.9061,4.9062v10.8166a9.42,9.42,0,0,0,2.759,6.6608l1.9682,1.9683a14.13,14.13,0,0,1,0,19.9825l-6.8744,6.8744a9.42,9.42,0,0,0-2.759,6.6608v11.0129a4.71,4.71,0,0,0,4.71,4.71h11.0129a9.42,9.42,0,0,0,6.6608-2.759l26.4991-26.499A14.13,14.13,0,0,0,601.8615,179.6976Z"/></svg>