<svg id="layer1" xmlns="http://www.w3.org/2000/svg" viewBox="0 0 189.0307 155.3317"><defs><style>.cls-1{fill:#5fbf4f;}.cls-2{fill:#00975e;}</style></defs><path class="cls-1" d="M12.4843,4.0735H54.0886a50.2391,50.2391,0,0,1,50.2391,50.2391V78.0584a9.42,9.42,0,0,1-9.42,9.42H56.4435A50.2391,50.2391,0,0,1,6.2044,37.2391V10.3533A6.28,6.28,0,0,1,12.4843,4.0735Z"/><path class="cls-2" d="M168.6965,38.4166H141.0258a21.98,21.98,0,0,0-21.98,21.98v17.27h0a24.5308,24.5308,0,0,1-24.5307,24.5307H86.4693a16.4847,16.4847,0,0,0-16.4848,16.4847v16.0922a16.4847,16.4847,0,0,0,16.4848,16.4847h16.0921a16.4847,16.4847,0,0,0,16.4848-16.4847v-8.0461a24.5308,24.5308,0,0,1,24.5307-24.5308h17.27a21.98,21.98,0,0,0,21.98-21.98V52.5463A14.13,14.13,0,0,0,168.6965,38.4166Z"/></svg>