<svg width="59" height="49" viewBox="0 0 59 49" fill="none" xmlns="http://www.w3.org/2000/svg">
<g id="Group 213">
<path id="Vector" d="M16.5082 28.1067H29.1473C30.8562 28.1067 32.2426 26.7245 32.2426 25.0209V17.2422C32.2426 8.15325 24.8513 0.784668 15.7344 0.784668H2.06353C0.923428 0.784668 0 1.70526 0 2.84185V11.6492C0 20.7381 7.3913 28.1067 16.5082 28.1067Z" fill="#5FBF4F"/>
<g id="Group">
<path id="Vector_2" d="M31.6621 49H26.3743C23.3822 49 20.9575 46.5828 20.9575 43.5999V38.3283C20.9575 35.3454 23.3822 32.9282 26.3743 32.9282H37.0788V43.5999C37.0788 46.5828 34.6542 49 31.6621 49Z" fill="#00975E"/>
<path id="Vector_3" d="M50.8145 32.9281H37.0791V19.2349C37.0791 15.2581 40.3124 12.0348 44.3014 12.0348H53.3939C55.9578 12.0348 58.0368 14.1074 58.0368 16.6635V25.7279C58.0368 29.7047 54.8035 32.9281 50.8145 32.9281Z" fill="#00975E"/>
<path id="Vector_4" d="M37.0792 25.0619V33.0978H29.0186C33.4706 33.0978 37.0792 29.5003 37.0792 25.0619Z" fill="#00975E"/>
<path id="Vector_5" d="M37.0791 40.9641V32.9282H45.1398C40.6877 32.9282 37.0791 36.5257 37.0791 40.9641Z" fill="#00975E"/>
</g>
</g>
</svg>
