<svg width="200" height="75" viewBox="0 0 200 75" fill="none" xmlns="http://www.w3.org/2000/svg">
<path d="M169.789 74.6369H165.763L159.756 59.5085C158.535 59.088 157.718 58.5867 157.303 57.9917L157.669 55.0064H166.092L166.459 57.9917C166.142 58.4005 165.617 58.7846 164.885 59.1114L166.861 64.9779C167.301 66.1913 167.619 67.3929 167.813 68.5816L167.886 69.118H168.399C168.595 67.8356 168.935 66.4699 169.424 65.0469L171.366 59.308C170.462 58.9461 169.829 58.5034 169.461 57.9904L169.827 55.0051H177.884L178.25 57.9904C177.811 58.5854 177.006 59.0867 175.834 59.5072L169.789 74.6369Z" fill="white"/>
<path d="M148.022 54.9947C149.465 54.6562 150.806 54.4934 152.044 54.4934C153.281 54.4934 154.324 54.5286 155.176 54.6106V69.8327C156.182 70.2181 156.891 70.649 157.303 71.1385L156.916 74.0666H148.022L147.635 71.1385C147.996 70.649 148.703 70.2168 149.761 69.8327V59.2298C148.858 58.9265 148.15 58.4838 147.635 57.9357L148.022 54.9947ZM152.392 52.3583C150.251 52.3583 149.181 51.4014 149.181 49.4888C149.181 47.5646 150.251 46.5959 152.392 46.5959C154.557 46.5959 155.64 47.5646 155.64 49.4888C155.639 51.4027 154.555 52.3583 152.392 52.3583Z" fill="white"/>
<path d="M136.752 47.0984C138.144 46.7599 139.475 46.5972 140.745 46.5972C142.015 46.5972 143.103 46.6323 144.007 46.7143V69.7272C144.739 69.8561 145.41 70.0657 146.021 70.3807V73.4012C144.556 74.2175 142.7 74.638 140.452 74.638C140.209 74.5091 139.963 74.2761 139.719 73.9376C139.499 73.6108 139.377 73.284 139.353 72.9807C138.817 73.4468 138.119 73.8439 137.264 74.1706C136.409 74.474 135.567 74.6367 134.736 74.6367C132.097 74.6367 130.18 73.8907 128.983 72.4091C127.811 70.8924 127.224 68.4435 127.224 65.0376C127.224 61.1761 128.128 58.4707 129.936 56.9084C131.523 55.5323 133.477 54.8436 135.798 54.8436C136.824 54.8436 137.85 54.9724 138.877 55.2289V51.426C137.753 51.0992 136.922 50.6331 136.384 50.0499L136.752 47.0984ZM135.507 70.7179C136.899 70.7179 138.022 70.287 138.878 69.4121V59.136C137.876 58.8795 136.814 58.7506 135.69 58.7506C134.566 58.7506 133.747 59.2753 133.234 60.3247C132.746 61.3506 132.501 62.8908 132.501 64.9673C132.501 67.0087 132.746 68.4786 133.234 69.3769C133.722 70.2753 134.48 70.7179 135.507 70.7179Z" fill="white"/>
<path d="M98.0482 54.9009C99.384 54.5976 100.588 54.4465 101.658 54.4465C102.727 54.4465 103.612 54.47 104.318 54.5168V56.4411C104.926 55.9047 105.728 55.4607 106.724 55.1352C107.743 54.7733 108.715 54.5989 109.639 54.5989C112.02 54.5989 113.684 55.1821 114.632 56.3604C115.604 57.5386 116.091 59.5683 116.091 62.4612V69.821C117.038 70.2063 117.707 70.6373 118.095 71.1151L117.73 74.0665H109.347L108.982 71.1151C109.323 70.6373 109.99 70.205 110.986 69.821V62.2281C110.986 60.852 110.768 59.9302 110.331 59.4641C109.917 58.9863 109.165 58.7416 108.071 58.7416C106.977 58.7416 105.884 59.1504 104.791 59.9667V69.8223C105.738 70.2076 106.407 70.6386 106.796 71.1164L106.431 74.0678H98.0469L97.6819 71.1164C98.0234 70.6386 98.6906 70.2063 99.6875 69.8223V59.1595C98.8371 58.8561 98.1686 58.4252 97.6819 57.8537L98.0482 54.9009Z" fill="white"/>
<path d="M88.6298 74.6367C85.7528 74.6367 83.5823 73.8204 82.1196 72.1995C80.6805 70.5786 79.9609 68.2221 79.9609 65.1196C79.9609 63.2422 80.2134 61.6318 80.7171 60.2908C81.2195 58.9264 81.9038 57.8757 82.7673 57.1414C84.4458 55.7184 86.4004 55.0076 88.6298 55.0076C90.8605 55.0076 92.5639 55.6143 93.7374 56.8277C94.9372 58.0293 95.5364 60.1749 95.5364 63.3008C95.5364 65.1209 94.6847 66.0414 92.9825 66.0414H85.1759C85.2714 67.6388 85.6547 68.7585 86.3272 69.4238C87.0232 70.0773 88.113 70.4158 89.6006 70.4158C90.4169 70.4158 91.1941 70.3104 91.9385 70.1125C92.6816 69.9029 93.2207 69.7037 93.5569 69.4941L94.0593 69.1907L95.1386 72.2346C94.9947 72.4091 94.7789 72.6434 94.491 72.9234C94.2267 73.1798 93.5307 73.5301 92.4043 73.9844C91.304 74.4154 90.0441 74.6367 88.6298 74.6367ZM90.8958 62.646C90.9442 62.2957 90.9677 61.8648 90.9677 61.3636C90.9677 60.8506 90.7754 60.3142 90.3921 59.7661C90.0088 59.1828 89.3376 58.8912 88.3773 58.8912C87.4432 58.8912 86.7236 59.1946 86.2199 59.8013C85.7162 60.4079 85.3813 61.4339 85.2125 62.8803L90.8958 62.646Z" fill="white"/>
<path d="M70.9062 74.6367C68.0292 74.6367 65.8574 73.8204 64.3947 72.1995C62.9569 70.5786 62.2373 68.2221 62.2373 65.1196C62.2373 63.2422 62.4898 61.6318 62.9922 60.2908C63.4959 58.9264 64.1801 57.8757 65.0436 57.1414C66.7222 55.7184 68.6755 55.0076 70.9062 55.0076C73.1368 55.0076 74.8389 55.6143 76.0138 56.8277C77.2135 58.0293 77.8114 60.1749 77.8114 63.3008C77.8114 65.1209 76.961 66.0414 75.2576 66.0414H67.4522C67.5477 67.6388 67.9311 68.7585 68.6035 69.4238C69.2983 70.0773 70.3894 70.4158 71.8756 70.4158C72.692 70.4158 73.4705 70.3104 74.2136 70.1125C74.958 69.9029 75.497 69.7037 75.832 69.4941L76.3356 69.1907L77.415 72.2346C77.2711 72.4091 77.0552 72.6434 76.7674 72.9234C76.5031 73.1798 75.8084 73.5301 74.6806 73.9844C73.579 74.4154 72.3204 74.6367 70.9062 74.6367ZM73.1709 62.646C73.2193 62.2957 73.2441 61.8648 73.2441 61.3636C73.2441 60.8506 73.0518 60.3142 72.6685 59.7661C72.2838 59.1828 71.6127 58.8912 70.6537 58.8912C69.7182 58.8912 68.9986 59.1946 68.4963 59.8013C67.9926 60.4079 67.6576 61.4339 67.4889 62.8803L73.1709 62.646Z" fill="white"/>
<path d="M58.8801 59.6138C56.9975 59.6138 55.6983 59.9874 54.9787 60.7334V69.5045C56.9844 69.8899 58.3594 70.4263 59.1025 71.1137L58.731 74.0652H48.1062L47.7346 71.1137C48.0813 70.6359 48.763 70.2037 49.7782 69.8196V59.1594C48.9121 58.8561 48.2305 58.4251 47.7346 57.8536L48.1062 54.9021C49.4681 54.5988 50.694 54.4478 51.7825 54.4478C52.8724 54.4478 53.7764 54.4712 54.4947 54.5181V56.9331C55.0638 56.2444 55.7951 55.6846 56.6861 55.2536C57.577 54.7876 58.3816 54.5649 59.1012 54.5649C59.8443 54.5649 60.352 54.6235 60.6241 54.7511L60.5129 59.731C60.0183 59.6607 59.4741 59.6138 58.8801 59.6138Z" fill="white"/>
<path d="M35.8879 52.021C34.2303 52.021 32.939 52.6863 32.0127 54.0039C31.1099 55.3331 30.6599 57.631 30.6599 60.9093C30.6599 67.1846 32.3175 70.3222 35.6315 70.3222C36.9476 70.3222 38.1173 70.1126 39.1404 69.6804V65.3645C38.0191 64.9908 37.2525 64.513 36.8377 63.9532L37.2027 60.9444H45.7565L46.1228 63.9532C45.8062 64.362 45.2331 64.7578 44.405 65.1431V72.1879C43.2354 73.0862 41.9441 73.7163 40.5298 74.1004C39.1404 74.4506 37.399 74.6368 35.3031 74.6368C31.8177 74.6368 29.2587 73.5991 27.6259 71.546C25.9931 69.4577 25.1768 66.087 25.1768 61.4444C25.1768 56.7666 26.1397 53.3021 28.0642 51.0745C30.0149 48.8352 32.6708 47.7156 36.0331 47.7156C39.4203 47.7156 42.1874 48.5202 44.3317 50.1189C44.3317 50.27 44.3317 50.5616 44.3317 50.9938C44.3317 51.4248 44.2467 52.1603 44.0766 53.2097C43.9052 54.2473 43.6619 55.0988 43.3453 55.7641H39.9829C39.6166 55.0519 39.3732 53.9909 39.2516 52.5913C38.2036 52.2189 37.0811 52.021 35.8879 52.021Z" fill="white"/>
<path d="M95.1988 27.6659H108.02C109.754 27.6659 111.16 26.2663 111.16 24.5413V16.6646C111.16 7.46133 103.662 0 94.4138 0H80.5457C79.3891 0 78.4524 0.932178 78.4524 2.08308V11.0013C78.4524 20.2046 85.9503 27.6659 95.1988 27.6659Z" fill="white"/>
<path d="M110.571 48.8222H105.207C102.172 48.8222 99.7124 46.3745 99.7124 43.3541V38.0162C99.7124 34.9957 102.172 32.5481 105.207 32.5481H116.066V43.3541C116.066 46.3745 113.607 48.8222 110.571 48.8222Z" fill="white"/>
<path d="M130 32.5481H116.066V18.6826C116.066 14.6558 119.346 11.3918 123.393 11.3918H132.616C135.217 11.3918 137.326 13.4905 137.326 16.0788V25.2573C137.326 29.2842 134.046 32.5481 130 32.5481Z" fill="white"/>
<path d="M116.066 24.583V32.72H107.889C112.406 32.72 116.066 29.0773 116.066 24.583Z" fill="white"/>
<path d="M116.066 40.6851V32.5481H124.243C119.727 32.5481 116.066 36.1909 116.066 40.6851Z" fill="white"/>
<path d="M1.37863 58.5918L8.57564 51.4299C9.16438 50.844 9.96376 50.5146 10.7958 50.5146H14.4015C15.3043 50.5146 16.0369 51.2437 16.0369 52.1421V55.7302C16.0369 56.5595 15.7059 57.3537 15.1172 57.9395L14.4617 58.5918C12.6222 60.4223 12.6222 63.3894 14.4617 65.2199L16.7526 67.4996C17.3413 68.0854 17.6723 68.8809 17.6723 69.7089V73.3621C17.6723 74.2253 16.9698 74.9244 16.1023 74.9244H12.4312C11.5978 74.9244 10.7998 74.5951 10.211 74.0092L1.37863 65.2199C-0.459544 63.3894 -0.459544 60.421 1.37863 58.5918Z" fill="white"/>
<path d="M198.621 58.5918L191.424 51.4299C190.835 50.844 190.036 50.5146 189.204 50.5146H185.598C184.695 50.5146 183.963 51.2437 183.963 52.1421V55.7302C183.963 56.5595 184.294 57.3537 184.882 57.9395L185.538 58.5918C187.377 60.4223 187.377 63.3894 185.538 65.2199L183.247 67.4996C182.658 68.0854 182.327 68.8809 182.327 69.7089V73.3621C182.327 74.2253 183.03 74.9244 183.897 74.9244H187.568C188.402 74.9244 189.2 74.5951 189.788 74.0092L198.621 65.2199C200.459 63.3894 200.459 60.421 198.621 58.5918Z" fill="white"/>
</svg>
