<svg width="80" height="57" viewBox="0 0 80 57" fill="none" xmlns="http://www.w3.org/2000/svg">
<g id="&#240;&#159;&#166;&#134; icon &#34;YouTube&#34;">
<path id="Vector" d="M78.3283 8.80121C77.4083 5.33686 74.6974 2.60844 71.2555 1.68252C65.0167 0 40 0 40 0C40 0 14.9834 0 8.74452 1.68252C5.30258 2.60859 2.59174 5.33686 1.67168 8.80121C0 15.0805 0 28.1818 0 28.1818C0 28.1818 0 41.283 1.67168 47.5624C2.59174 51.0267 5.30258 53.6415 8.74452 54.5674C14.9834 56.2499 40 56.2499 40 56.2499C40 56.2499 65.0166 56.2499 71.2555 54.5674C74.6974 53.6415 77.4083 51.0267 78.3283 47.5624C80 41.283 80 28.1818 80 28.1818C80 28.1818 80 15.0805 78.3283 8.80121ZM31.8181 40.0768V16.2868L52.7271 28.1821L31.8181 40.0768Z" fill="white"/>
</g>
</svg>
