<svg width="81" height="80" viewBox="0 0 81 80" fill="none" xmlns="http://www.w3.org/2000/svg">
<g id="&#240;&#159;&#166;&#134; icon &#34;Instagram&#34;">
<path id="Vector" d="M40.0179 19.489C28.6645 19.489 19.5069 28.6467 19.5069 40C19.5069 51.3533 28.6645 60.511 40.0179 60.511C51.3712 60.511 60.5288 51.3533 60.5288 40C60.5288 28.6467 51.3712 19.489 40.0179 19.489ZM40.0179 53.3348C32.681 53.3348 26.683 47.3547 26.683 40C26.683 32.6453 32.6632 26.6652 40.0179 26.6652C47.3725 26.6652 53.3527 32.6453 53.3527 40C53.3527 47.3547 47.3547 53.3348 40.0179 53.3348ZM66.152 18.65C66.152 21.3098 64.0098 23.4341 61.3679 23.4341C58.708 23.4341 56.5837 21.292 56.5837 18.65C56.5837 16.008 58.7259 13.8659 61.3679 13.8659C64.0098 13.8659 66.152 16.008 66.152 18.65ZM79.7367 23.5055C79.4332 17.097 77.9694 11.4203 73.2746 6.74328C68.5976 2.06627 62.9209 0.602477 56.5123 0.281156C49.9074 -0.0937186 30.1105 -0.0937186 23.5055 0.281156C17.1148 0.584626 11.4381 2.04842 6.74328 6.72543C2.04842 11.4024 0.602477 17.0791 0.281156 23.4877C-0.0937186 30.0926 -0.0937186 49.8895 0.281156 56.4945C0.584626 62.903 2.04842 68.5797 6.74328 73.2567C11.4381 77.9337 17.097 79.3975 23.5055 79.7188C30.1105 80.0937 49.9074 80.0937 56.5123 79.7188C62.9209 79.4154 68.5976 77.9516 73.2746 73.2567C77.9516 68.5797 79.4154 62.903 79.7367 56.4945C80.1116 49.8895 80.1116 30.1105 79.7367 23.5055ZM71.2038 63.5814C69.8114 67.0802 67.1159 69.7757 63.5992 71.186C58.3332 73.2746 45.8373 72.7926 40.0179 72.7926C34.1984 72.7926 21.6847 73.2567 16.4365 71.186C12.9376 69.7936 10.2421 67.0981 8.83186 63.5814C6.74328 58.3153 7.22526 45.8195 7.22526 40C7.22526 34.1805 6.76113 21.6669 8.83186 16.4186C10.2243 12.9198 12.9198 10.2243 16.4365 8.81401C21.7026 6.72543 34.1984 7.20741 40.0179 7.20741C45.8373 7.20741 58.351 6.74328 63.5992 8.81401C67.0981 10.2064 69.7936 12.9019 71.2038 16.4186C73.2924 21.6847 72.8104 34.1805 72.8104 40C72.8104 45.8195 73.2924 58.3331 71.2038 63.5814Z" fill="white"/>
</g>
</svg>
