<svg xmlns="http://www.w3.org/2000/svg" width="58" height="60" viewBox="0 0 58 60" fill="#E9E9E9">
  <path fill-rule="evenodd" clip-rule="evenodd" d="M0.739365 19.8265C4.76146 12.9653 6.6542 11.3091 8.54695 9.65297C10.4397 7.99681 18.4839 3.50154 22.2694 2.31857C26.0549 1.1356 29.6038 0.662415 31.9697 0.662415C33.8625 0.662415 37.8057 1.45106 39.5407 1.84538C41.3546 2.63403 45.4082 4.54255 47.1117 5.86747C49.241 7.52363 55.1559 16.041 56.1022 18.6435C57.0486 21.246 58.4682 31.6562 57.0486 39.2272C53.5103 45.8614 52.6592 46.9148 51.7903 47.9901C51.7296 48.0652 51.6688 48.1404 51.607 48.2177C50.6606 49.4007 46.4019 54.1325 45.2189 54.6057C44.036 55.0789 30.3136 59.3376 28.4208 59.3376C23.6889 58.1546 13.2788 53.6594 10.6763 51.53C6.8908 47.7445 2.39552 39.2272 1.44915 35.6783C-0.0650527 30.1893 0.345043 22.8233 0.739365 19.8265ZM13.9938 24.6192C16.23 18.856 19.8079 14.8662 24.7276 14.4228C29.6473 13.9795 37.2504 17.5261 39.9339 19.2993C43.0646 23.2893 44.4064 26.3926 44.8536 31.2691C43.9591 37.0322 39.0394 45.012 33.6725 45.4553C28.3056 45.8986 27.4111 45.4553 24.2804 43.682C21.1497 41.9087 15.5955 36.4751 14.8882 34.3723C13.9936 31.7124 13.0993 27.7223 13.9938 24.6192Z" fill="#E9E9E9"/>
</svg>