<svg xmlns="http://www.w3.org/2000/svg" width="78" height="92" viewBox="0 0 78 92" fill="#E9E9E9">
  <path d="M28.5536 14.7481C28.0252 13.3435 26.7924 10.8855 27.673 6.49618C29.2581 6.37913 32.8863 6.00458 34.718 5.44275C37.0076 4.74046 38.5927 2.63359 39.4733 0C39.4733 1.05344 40.7062 3.16031 42.1152 4.03817C43.5241 4.91603 48.6317 5.61832 51.4497 6.84733C50.7452 9.30534 49.1601 12.1145 48.1033 14.5725C47.0466 17.0305 43.5241 20.8931 43.7003 25.2824C46.166 24.7557 47.7511 23.1756 49.1601 20.8931C50.5691 18.6107 52.5064 12.8168 53.0348 7.19847C53.8802 7.47939 57.4966 9.1883 59.1991 10.0076L57.7901 16.5038C57.7901 17.5573 56.9095 19.8397 55.6766 22.2977C54.4438 24.7557 48.8078 31.7786 45.4615 35.1145C45.2854 35.8168 46.166 35.9924 47.2227 35.9924C48.2795 35.9924 52.1542 32.8321 53.387 31.4275C54.6199 30.0229 57.7901 25.9847 58.8468 24.9313C59.9036 23.8779 61.8409 19.8397 62.1932 12.1145C64.3067 13.3786 68.3575 18.8448 70.1187 21.4198C68.0639 24.8728 63.8135 31.9893 63.2499 32.8321C62.5454 33.8855 60.4319 35.4656 57.9662 36.6947C55.5005 37.9237 48.1033 39.6794 47.3988 41.6107C50.2168 42.4885 61.8409 37.9237 64.4828 35.9924C67.1246 34.0611 72.2322 28.7939 73.6412 25.8092C73.9934 27.0382 75.2263 28.9695 75.9308 31.0763C76.6353 33.1832 77.8681 35.1145 77.1636 40.7328C72.5844 43.8931 68.7097 45.1221 66.244 45.6489C63.7783 46.1756 52.1542 47.4046 47.3988 46.8779C46.6356 47.1705 45.4263 48.0015 46.6944 48.9847C48.2795 49.1603 64.1305 48.2824 68.0052 47.7557C71.8799 47.229 73.1128 45.1221 76.4591 44.771C76.4591 46.1756 74.1695 54.2519 73.9934 56.0076C73.8525 57.4122 72.5257 60.2214 71.8799 61.4504C68.8859 62.0356 61.8409 63.1008 57.614 62.6794C53.387 62.258 46.8118 59.8117 44.0525 58.6412C43.9938 59.3435 44.123 60.8885 45.1092 61.4504C46.3421 62.1527 55.6766 65.1374 57.614 65.313C59.5513 65.4885 65.5395 66.1908 69.7665 65.6641C69.2029 66.6473 64.7176 74.8524 62.5454 78.8321C61.43 79.7099 58.3185 81.5008 54.796 81.6412C50.3929 81.8168 44.757 81.6412 41.7629 80.0611C38.8145 78.505 38.2571 76.949 35.718 69.8601L35.5986 69.5267C36.0683 73.0382 37.078 80.7282 37.3598 83.3969C37.6416 86.0656 37.4772 90.2443 37.3598 92L33.6612 91.4733C34.0135 89.3664 33.6612 72.687 33.6612 69C33.0977 70.545 30.3736 77.0178 29.082 80.0611C27.2621 80.3537 23.27 80.9389 21.861 80.9389C20.0998 80.9389 16.0489 80.2366 12.5265 78.8321C11.2936 77.9542 8.47565 75.8473 6.89055 73.916C5.83381 72.1603 4.42482 70.7557 4.42482 67.2443C5.65768 67.9466 9.00402 67.771 10.413 67.2443C11.822 66.7176 14.4638 65.4885 15.5206 64.6107C16.5773 63.7328 20.0998 62.1527 21.6849 61.8015C22.953 61.5206 24.2093 60.8651 24.679 60.5725C24.1506 60.3384 22.8825 59.8351 22.0371 59.6947C20.9804 59.5191 17.4579 60.9237 15.8728 61.8015C14.2877 62.6794 9.53239 64.6107 7.59504 64.9618C6.04515 65.2427 4.01387 64.3766 3.19196 63.9084C3.07455 63.0305 2.73404 60.8885 2.31135 59.3435C1.88865 57.7985 0.96107 53.4326 0.550116 51.4427C1.31332 51.9695 3.36808 53.1282 5.48156 53.5496C7.77116 53.7252 16.4012 51.2672 19.7475 50.916C23.0939 50.5649 25.3835 51.7939 27.1447 51.2672C27.1447 50.5649 24.5028 48.9847 21.6849 48.458C18.8669 47.9313 10.0608 50.0382 7.94728 50.3893C5.83381 50.7405 2.83972 50.5649 0.373993 47.9313C0.514891 46.1053 1.37202 38.9771 1.78298 35.6412C2.31135 36.2265 3.61464 37.5023 4.60085 37.9237C7.06648 37.9237 12.3503 37.3969 16.7534 37.3969C21.1566 37.3969 25.5596 38.9771 26.2641 38.9771C26.7924 37.7481 21.8609 35.4656 18.6907 34.9389C15.5205 34.4122 9.88454 35.2901 4.95319 34.5878C4.1078 34.3069 2.95707 33.0662 2.48738 32.4809C2.36996 29.2621 2.62827 22.1924 4.60085 19.6641C4.9531 21.2443 8.47556 23.7023 9.88454 24.7557C11.2935 25.8092 17.1056 26.1603 18.6907 26.1603C20.2758 26.1603 24.1505 27.3893 26.7924 30.1985C26.6162 28.0916 25.0311 26.687 23.2699 25.458C21.5087 24.229 13.407 22.6489 12.3503 22.2977C11.2935 21.9466 9.70842 19.6641 8.8278 15.626C10.0607 14.2214 14.816 11.0611 16.225 9.83206C17.634 8.60305 20.4519 6.49618 22.2132 7.19847C21.8609 7.84224 21.2973 9.90229 21.8609 12.9924C22.5654 16.855 25.7356 17.9084 27.4969 19.4885C28.9059 20.7527 29.9626 23.5267 30.3148 24.7557H31.1955C31.3716 23.8779 30.8432 21.2443 30.6671 19.6641C30.491 18.084 29.6103 17.0305 28.5536 14.7481Z" fill="#E9E9E9"/>
</svg>