<svg xmlns="http://www.w3.org/2000/svg" width="37" height="78" viewBox="0 0 37 78" fill="E9E9E9">
  <path d="M10.2041 10.4981C11.2321 8.76489 15.0223 5.24298 18.6551 0.456548C19.5868 1.94568 25.9296 6.93437 28.283 9.85163C30.6364 12.7689 33.1472 16.9507 34.2671 21.9478C35.387 26.9449 37.3557 42.7515 35.3414 50.5467C34.5301 54.0187 31.4092 62.9148 24.9005 76.5669C20.7982 76.9173 12.0997 77.6475 10.1243 77.7652C8.05444 73.796 3.37674 63.9342 1.22449 56.2405C0.386686 47.5164 -0.44887 42.8049 1.60248 31.3131C2.78565 26.8318 5.0274 22.8607 5.46697 20.3981L4.24218 20.5507C4.65684 19.0865 8.3896 13.2389 10.2041 10.4981Z" fill="#E9E9E9"/>
</svg>