<svg role="img" aria-label="Search" alt="Search" width="24" height="24" viewBox="0 0 24 24" fill="none" xmlns="http://www.w3.org/2000/svg">
          <path fill-rule="evenodd" clip-rule="evenodd" d="M15.1452 10.8779C15.1452 8.52107 13.2346 6.61047 10.8778 6.61047C8.52095 6.61047 6.61035 8.52107 6.61035 10.8779C6.61035 13.2348 8.52095 15.1454 10.8778 15.1454C13.2346 15.1454 15.1452 13.2348 15.1452 10.8779ZM10.8778 4.79993C14.2346 4.79993 16.9558 7.52114 16.9558 10.8779C16.9558 12.2295 16.5146 13.4781 15.7684 14.4875L19.2001 17.9215L17.9194 19.2013L14.4883 15.7678C13.4787 16.5145 12.2298 16.9559 10.8778 16.9559C7.52102 16.9559 4.7998 14.2347 4.7998 10.8779C4.7998 7.52114 7.52102 4.79993 10.8778 4.79993Z" fill="#343537"></path>
        </svg>